<svg version="1.1" id="Layer_1" xmlns="http://www.w3.org/2000/svg" xmlns:xlink="http://www.w3.org/1999/xlink" x="0px" y="0px"
	 width="100%" viewBox="0 0 500 500" enable-background="new 0 0 500 500" xml:space="preserve">
<path fill="#292621" opacity="1.000000" stroke="none" 
	d="
M332.000000,501.000000 
	C222.666687,501.000000 113.833359,500.979340 5.000179,501.095367 
	C1.576359,501.099030 0.903033,500.423889 0.905298,497.000031 
	C1.013776,333.000122 1.013757,169.000153 0.905339,5.000259 
	C0.903075,1.576987 1.575755,0.903019 4.999864,0.905285 
	C168.999756,1.013775 332.999725,1.013760 496.999634,0.905354 
	C500.422638,0.903092 501.096985,1.575406 501.094727,4.999744 
	C500.986206,168.999634 500.986237,332.999603 501.094604,496.999512 
	C501.096893,500.422272 500.426147,501.105865 497.000183,501.097260 
	C442.167053,500.959290 387.333466,501.000000 332.000000,501.000000 
z"/>
<path fill="#DDD8D6" opacity="1.000000" stroke="none" 
	d="
M206.156250,113.262421 
	C210.634079,113.138092 214.636154,113.118126 218.626572,112.892365 
	C220.803528,112.769196 221.789932,113.564926 221.499268,115.715675 
	C221.265396,117.446152 222.559021,119.834694 219.185471,120.190468 
	C215.061966,120.625320 210.929855,121.245934 206.894669,122.186165 
	C201.331360,123.482460 198.122467,127.204559 196.956284,132.811035 
	C195.416626,140.212982 195.467865,147.717316 195.448486,155.203171 
	C195.292755,215.348648 195.301682,275.494781 195.012802,335.639526 
	C194.935165,351.800018 194.164261,368.061279 188.643707,383.455017 
	C179.266296,409.603363 159.149246,424.601044 134.093140,433.845642 
	C116.708473,440.259766 98.455116,441.834839 80.077850,442.313995 
	C78.207413,442.362762 76.749275,442.348846 76.963081,439.837646 
	C77.174370,437.356201 76.061104,434.642853 80.248077,433.928925 
	C95.120949,431.392975 106.586418,424.114502 112.468521,409.548889 
	C114.967827,403.359955 116.881165,397.012756 117.995316,390.430206 
	C120.142487,377.744476 120.764160,364.938293 120.772385,352.105865 
	C120.814743,285.961151 120.812614,219.816452 120.756432,153.671799 
	C120.751907,148.350861 120.447067,143.006577 119.888847,137.714600 
	C118.713799,126.574997 114.247406,122.229973 103.124931,120.898430 
	C101.471237,120.700455 99.800743,120.191856 98.173691,120.311630 
	C94.181610,120.605522 94.656593,118.012939 94.590584,115.454300 
	C94.500435,111.959679 96.963028,112.937531 98.734802,112.998756 
	C134.379318,114.230522 170.026093,114.178062 206.156250,113.262421 
z"/>
<path fill="#DCD7D5" opacity="1.000000" stroke="none" 
	d="
M330.123779,160.112183 
	C325.571472,160.773041 321.394714,161.105896 317.376862,162.088516 
	C310.801086,163.696747 308.213898,167.843475 309.147614,174.745163 
	C309.797668,179.549942 311.373749,184.134430 313.185638,188.601837 
	C331.793915,234.483002 350.447754,280.345734 369.101807,326.208313 
	C369.459717,327.088318 369.974518,327.904449 370.694336,329.283295 
	C377.748474,309.506287 384.726532,290.309387 391.439941,271.020355 
	C398.535400,250.633636 407.012634,230.684509 411.504181,209.456604 
	C413.333893,200.808975 414.639648,192.094971 413.321381,183.188278 
	C411.290253,169.465576 404.876343,162.874283 390.767639,160.555069 
	C388.012054,160.102112 386.170990,159.673767 386.505188,156.141098 
	C386.742096,153.637039 387.619324,153.161713 389.890808,153.271683 
	C411.029449,154.295013 432.174225,154.705948 453.320435,153.460052 
	C454.563568,153.386810 455.866699,153.249298 455.801605,154.940796 
	C455.723358,156.975754 456.790039,159.360641 454.396240,160.857788 
	C436.767944,171.882950 428.629303,189.517105 422.000732,208.015594 
	C400.925812,266.829834 380.020264,325.704834 359.171814,384.599762 
	C357.997864,387.916107 356.661926,389.365387 352.944397,388.925598 
	C344.321838,387.905487 335.637482,387.945557 327.008362,388.920074 
	C323.606873,389.304230 322.160858,388.152252 320.836884,384.983246 
	C292.652496,317.522919 264.323425,250.123062 236.026855,182.709610 
	C233.378326,176.399811 230.581406,170.170883 225.611755,165.264847 
	C223.716309,163.393661 221.703461,161.385208 219.026413,160.924271 
	C215.409119,160.301422 215.695892,157.890640 215.867737,155.361099 
	C216.108505,151.816605 218.784729,153.379700 220.407715,153.427582 
	C256.385193,154.489014 292.360138,154.566010 328.337494,153.442429 
	C329.648926,153.401459 331.794708,152.335220 331.984924,154.603317 
	C332.135803,156.402237 333.686340,158.976593 330.123779,160.112183 
z"/>
</svg>