<svg version="1.1" id="Layer_1" xmlns="http://www.w3.org/2000/svg" xmlns:xlink="http://www.w3.org/1999/xlink" x="0px" y="0px"
	 width="100%" viewBox="0 0 500 500" enable-background="new 0 0 500 500" xml:space="preserve">
<path fill="#F4F4F4" opacity="1.000000" stroke="none" 
	d="
M223.000000,501.000000 
	C150.000015,501.000000 77.499985,500.969086 5.000221,501.096313 
	C1.575823,501.102325 0.903037,500.423798 0.905301,497.000000 
	C1.013779,333.000092 1.013772,169.000122 0.905333,5.000234 
	C0.903070,1.576905 1.575833,0.903023 4.999889,0.905288 
	C168.999771,1.013774 332.999725,1.013761 496.999634,0.905352 
	C500.422668,0.903090 501.096985,1.575453 501.094727,4.999770 
	C500.986206,168.999664 500.986237,332.999634 501.094604,496.999542 
	C501.096893,500.422363 500.425262,501.100342 497.000275,501.095795 
	C405.833618,500.975342 314.666809,501.000000 223.000000,501.000000 
z"/>
<path fill="#3C3B39" opacity="1.000000" stroke="none" 
	d="
M151.361023,97.341675 
	C149.848175,97.175278 148.168304,97.799545 148.022034,96.238541 
	C147.848114,94.382439 149.632584,94.994095 150.619705,94.992416 
	C173.448029,94.953728 196.276428,94.953224 219.104736,94.995010 
	C220.089981,94.996811 221.859161,94.369766 221.763504,96.188751 
	C221.677841,97.818100 219.985947,97.248833 218.934265,97.323410 
	C201.789841,98.539330 198.925629,101.591560 198.925217,118.725456 
	C198.924042,168.214722 198.912186,217.703979 198.935501,267.193237 
	C198.939514,275.721497 198.452240,284.205261 195.934509,292.390869 
	C189.841415,312.200592 175.303284,321.720703 155.727386,324.993164 
	C150.447327,325.875824 145.137985,326.241272 139.801315,326.065094 
	C138.469208,326.021149 136.131836,326.943237 135.993912,325.134399 
	C135.824493,322.912537 138.231293,324.062469 139.494354,323.835297 
	C142.274994,323.335114 145.151596,323.279236 147.882782,322.609131 
	C158.928665,319.898804 164.838699,312.122803 167.904663,301.728027 
	C170.289291,293.643219 170.469666,285.303528 170.472626,276.967651 
	C170.491623,223.645889 170.486130,170.324142 170.480896,117.002388 
	C170.479416,102.017601 166.891800,98.253777 151.361023,97.341675 
z"/>
<path fill="#3E3C3A" opacity="1.000000" stroke="none" 
	d="
M374.679596,212.818985 
	C358.650665,262.362122 342.714050,311.522186 326.974884,360.745422 
	C325.818146,364.363098 324.090271,365.151367 320.656311,365.081268 
	C311.386780,364.892059 311.364868,365.040527 308.379364,356.542511 
	C291.250488,307.786926 274.129608,259.028534 257.012024,210.269028 
	C255.522781,206.026901 254.160980,201.706100 250.877914,198.418884 
	C247.572098,195.108902 243.252899,194.638504 238.884644,194.339371 
	C237.851883,194.268646 236.190643,194.738403 236.375046,192.896240 
	C236.511383,191.534378 237.938873,191.984787 238.821152,191.983521 
	C260.477570,191.952469 282.134064,191.948837 303.790436,191.988724 
	C304.763611,191.990524 306.500061,191.361115 306.328827,193.286697 
	C306.218964,194.522827 304.838806,194.292664 303.863831,194.347473 
	C299.878876,194.571472 295.847961,194.504822 291.921570,195.111908 
	C286.842743,195.897217 284.877441,198.627365 284.849304,203.753860 
	C284.826874,207.835831 286.209717,211.592880 287.476654,215.372803 
	C300.361206,253.813644 314.476105,291.838928 326.398041,330.604675 
	C327.505707,334.206482 328.506073,337.841278 329.893433,342.622833 
	C330.835785,340.365662 331.448517,339.162109 331.852417,337.892151 
	C344.746094,297.353027 357.621368,256.808075 370.492859,216.261917 
	C371.598602,212.778763 372.860962,209.328949 373.035248,205.622131 
	C373.339081,199.159241 370.827179,196.018402 364.477325,194.973236 
	C358.520203,193.992706 352.507324,194.504791 346.521057,194.299088 
	C345.252686,194.255493 342.953613,195.296661 342.964050,192.994324 
	C342.972473,191.134186 345.094055,192.006516 346.224426,192.002197 
	C363.382721,191.936691 380.541504,191.936172 397.699799,192.003143 
	C398.835754,192.007568 400.837921,191.099106 401.018494,192.956223 
	C401.224915,195.079269 399.117218,194.344421 398.006409,194.304001 
	C385.809845,193.860321 380.018890,195.348404 374.679596,212.818985 
z"/>
</svg>